<svg width="142" height="63" viewBox="0 0 142 63" fill="none" xmlns="http://www.w3.org/2000/svg">
<mask id="mask0_5_361" style="mask-type:luminance" maskUnits="userSpaceOnUse" x="5" y="11" width="44" height="34">
<path d="M5.35059 11.998H48.5204V44.1689H5.35059V11.998Z" fill="white"/>
</mask>
<g mask="url(#mask0_5_361)">
<path d="M48.2195 21.5614C48.2195 16.3122 43.951 12.0396 38.7038 12.0396C34.0809 12.0396 30.1811 15.309 29.3468 19.8371C27.6575 18.2014 25.3707 17.229 22.9398 17.229C18.1315 17.229 14.1699 20.9166 13.7414 25.6116C9.04015 26.0484 5.35254 30.0038 5.35254 34.8162C5.35254 39.9109 9.49338 44.0579 14.5942 44.0579H36.1019C41.1595 44.0167 45.2756 39.8759 45.2756 34.8162C45.2756 32.9312 44.6926 31.1513 43.6893 29.6618C46.5261 27.9107 48.2195 24.8844 48.2195 21.5614ZM30.8053 21.5614C30.8053 21.4461 30.8033 21.3307 30.8156 21.1988C31.001 16.9756 34.4662 13.667 38.7038 13.667C43.0569 13.667 46.5982 17.2084 46.5982 21.5614C46.5982 24.3302 45.1129 26.9322 42.7231 28.3536C42.7025 28.366 42.6881 28.3825 42.6696 28.3969C41.6786 27.3689 40.4549 26.5634 39.0623 26.0834C38.6029 23.294 36.1843 21.1968 33.3001 21.1968C32.4555 21.1968 31.6335 21.3822 30.8692 21.7345C30.8465 21.6953 30.8218 21.6603 30.7992 21.6232C30.7992 21.6026 30.8053 21.582 30.8053 21.5614ZM36.0957 42.2698H14.5942C14.5881 42.2698 14.5881 42.2698 14.5819 42.2698C10.4761 42.2636 7.14072 38.9221 7.14072 34.8162C7.14072 30.7063 10.4822 27.3586 14.5942 27.3586C15.5831 27.3586 16.5411 27.5481 17.4475 27.9231C17.9069 28.1147 18.4302 27.9004 18.6156 27.441C18.8051 26.9878 18.5909 26.4645 18.1315 26.2729C17.3033 25.9289 16.4277 25.7126 15.5357 25.6178C15.958 21.9055 19.1162 19.0172 22.9398 19.0172C25.5973 19.0172 28.053 20.4469 29.3756 22.7172C28.7967 23.2404 28.327 23.8852 27.9933 24.6001C27.7893 25.0513 27.9871 25.5828 28.4341 25.7847C28.8812 25.9927 29.4106 25.797 29.6187 25.35C29.7258 25.1048 29.8639 24.8803 30.0245 24.666C30.245 24.3488 30.519 24.0686 30.828 23.8317C30.8939 23.7843 30.9537 23.7349 31.0196 23.6937C31.6974 23.2281 32.4843 22.985 33.3001 22.985C35.4509 22.985 37.2267 24.666 37.3462 26.8106C37.3709 27.1979 37.6326 27.5255 38.0013 27.6264C39.1983 27.954 40.2654 28.5679 41.1348 29.3837C41.4088 29.6392 41.6601 29.9132 41.8929 30.2119C42.8982 31.4933 43.4895 33.1002 43.4895 34.8162C43.4895 38.8932 40.1706 42.2409 36.0957 42.2698Z" fill="white"/>
</g>
<mask id="mask1_5_361" style="mask-type:luminance" maskUnits="userSpaceOnUse" x="49" y="20" width="6" height="3">
<path d="M49.0469 20.436H54.397V22.5456H49.0469V20.436Z" fill="white"/>
</mask>
<g mask="url(#mask1_5_361)">
<path d="M53.5848 20.749H50.0744C49.6273 20.749 49.2627 21.1137 49.2627 21.5607C49.2627 22.0078 49.6273 22.3703 50.0744 22.3703H53.5848C54.0319 22.3703 54.3945 22.0078 54.3945 21.5607C54.3945 21.1137 54.0319 20.749 53.5848 20.749Z" fill="white"/>
</g>
<mask id="mask2_5_361" style="mask-type:luminance" maskUnits="userSpaceOnUse" x="37" y="5" width="3" height="7">
<path d="M37.4443 5.86719H39.5539V11.4707H37.4443V5.86719Z" fill="white"/>
</mask>
<g mask="url(#mask2_5_361)">
<path d="M38.7033 10.9989C39.1503 10.9989 39.5129 10.6343 39.5129 10.1873V6.67888C39.5129 6.23183 39.1503 5.86719 38.7033 5.86719C38.2562 5.86719 37.8916 6.23183 37.8916 6.67888V10.1873C37.8916 10.6343 38.2562 10.9989 38.7033 10.9989Z" fill="white"/>
</g>
<path d="M46.7443 14.33C46.9606 14.33 47.1645 14.2455 47.317 14.0931L49.7994 11.6106C49.9539 11.4561 50.0384 11.2542 50.0384 11.0379C50.0384 10.8195 49.9539 10.6176 49.7994 10.4631C49.4925 10.1562 48.9589 10.1562 48.654 10.4631L46.1715 12.9456C45.8543 13.2608 45.8543 13.7758 46.1715 14.0931C46.324 14.2455 46.5279 14.33 46.7443 14.33Z" fill="white"/>
<path d="M47.317 29.029C47.0121 28.7221 46.4785 28.7221 46.1716 29.029C46.0171 29.1815 45.9326 29.3854 45.9326 29.6018C45.9326 29.8181 46.0171 30.022 46.1716 30.1745L48.652 32.6569C48.8065 32.8094 49.0084 32.8938 49.2268 32.8938C49.4431 32.8938 49.647 32.8094 49.7995 32.6569C49.954 32.5045 50.0384 32.3005 50.0384 32.0842C50.0384 31.8658 49.954 31.6639 49.7995 31.5094L47.317 29.029Z" fill="white"/>
<path d="M30.0875 14.0931C30.242 14.2455 30.4439 14.33 30.6602 14.33C30.8765 14.33 31.0805 14.2455 31.235 14.0931C31.3875 13.9386 31.4719 13.7346 31.4719 13.5183C31.4719 13.302 31.3875 13.098 31.235 12.9456L28.7526 10.4631C28.4456 10.1562 27.912 10.1562 27.6051 10.4631C27.4526 10.6176 27.3682 10.8195 27.3682 11.0379C27.3682 11.2542 27.4526 11.4561 27.6051 11.6106L30.0875 14.0931Z" fill="white"/>
<path d="M15.7105 52.3106C14.1695 52.3106 12.917 51.056 12.917 49.515C12.917 48.1574 14.8617 45.7306 15.2511 45.2568C15.4777 44.9828 15.9433 44.9828 16.1699 45.2568C16.5593 45.7306 18.504 48.1574 18.504 49.515C18.504 51.056 17.2515 52.3106 15.7105 52.3106ZM15.7105 46.6C14.938 47.6259 14.1077 48.9444 14.1077 49.515C14.1077 50.3988 14.8267 51.1178 15.7105 51.1178C16.5943 51.1178 17.3133 50.3988 17.3133 49.515C17.3133 48.9444 16.4831 47.6259 15.7105 46.6Z" fill="white"/>
<path d="M25.3101 52.3106C23.7692 52.3106 22.5166 51.056 22.5166 49.515C22.5166 48.1574 24.4614 45.7306 24.8507 45.2568C25.0773 44.9828 25.545 44.9828 25.7695 45.2568C26.161 45.7306 28.1057 48.1574 28.1057 49.515C28.1057 51.056 26.8511 52.3106 25.3101 52.3106ZM25.3101 46.6C24.5396 47.6259 23.7074 48.9444 23.7074 49.515C23.7074 50.3988 24.4263 51.1178 25.3101 51.1178C26.1939 51.1178 26.9129 50.3988 26.9129 49.515C26.9129 48.9444 26.0827 47.6259 25.3101 46.6Z" fill="white"/>
<path d="M34.9128 52.3106C33.3718 52.3106 32.1172 51.056 32.1172 49.515C32.1172 48.1574 34.0619 45.7306 34.4534 45.2568C34.6779 44.9828 35.1456 44.9828 35.3722 45.2568C35.7615 45.7306 37.7063 48.1574 37.7063 49.515C37.7063 51.056 36.4537 52.3106 34.9128 52.3106ZM34.9128 46.6C34.1402 47.6259 33.31 48.9444 33.31 49.515C33.31 50.3988 34.029 51.1178 34.9128 51.1178C35.7966 51.1178 36.5155 50.3988 36.5155 49.515C36.5155 48.9444 35.6833 47.6259 34.9128 46.6Z" fill="white"/>
<path d="M20.5103 58.3878C18.9694 58.3878 17.7168 57.1352 17.7168 55.5942C17.7168 54.2346 19.6616 51.8077 20.0509 51.3339C20.2775 51.0599 20.7452 51.0599 20.9697 51.3339C21.3612 51.8077 23.3059 54.2346 23.3059 55.5942C23.3059 57.1352 22.0513 58.3878 20.5103 58.3878ZM20.5103 52.6771C19.7378 53.7031 18.9075 55.0215 18.9075 55.5942C18.9075 56.478 19.6265 57.197 20.5103 57.197C21.3941 57.197 22.1131 56.478 22.1131 55.5942C22.1131 55.0215 21.2829 53.7031 20.5103 52.6771Z" fill="white"/>
<path d="M30.113 58.3878C28.572 58.3878 27.3174 57.1352 27.3174 55.5942C27.3174 54.2346 29.2621 51.8077 29.6515 51.3339C29.8781 51.0599 30.3458 51.0599 30.5724 51.3339C30.9617 51.8077 32.9065 54.2346 32.9065 55.5942C32.9065 57.1352 31.6519 58.3878 30.113 58.3878ZM30.113 52.6771C29.3404 53.7031 28.5102 55.0215 28.5102 55.5942C28.5102 56.478 29.2292 57.197 30.113 57.197C30.9968 57.197 31.7137 56.478 31.7137 55.5942C31.7137 55.0215 30.8835 53.7031 30.113 52.6771Z" fill="white"/>
<path d="M70.3947 32.9463C69.2843 32.9463 68.248 32.8639 67.288 32.6991C66.3259 32.5343 65.4957 32.2953 64.7994 31.9822V28.414C65.5616 28.7437 66.4084 29.0135 67.3375 29.2216C68.2645 29.4317 69.1463 29.5347 69.9827 29.5347C71.021 29.5347 71.7956 29.44 72.3065 29.2463C72.8215 29.0547 73.0811 28.6407 73.0811 28.002C73.0811 27.5694 72.9534 27.2233 72.702 26.9637C72.4486 26.7 72.0387 26.4693 71.4742 26.2715C70.9138 26.0696 70.1475 25.8307 69.1751 25.5546C68.0317 25.2085 67.1191 24.8253 66.4393 24.4009C65.7635 23.9724 65.2773 23.4574 64.9807 22.8517C64.6882 22.2419 64.5439 21.4962 64.5439 20.6103C64.5439 19.0117 65.1146 17.79 66.258 16.9433C67.4055 16.0925 69.0968 15.666 71.3341 15.666C72.3065 15.666 73.25 15.7402 74.1688 15.8885C75.0918 16.0327 75.8375 16.1996 76.4102 16.3912V19.984C75.6624 19.6874 74.9105 19.4711 74.1523 19.333C73.3983 19.1971 72.6691 19.127 71.9604 19.127C71.021 19.127 70.2587 19.2156 69.6778 19.3907C69.1009 19.5617 68.8125 19.9593 68.8125 20.5856C68.8125 20.9482 68.9155 21.2407 69.1257 21.4591C69.3337 21.6733 69.6942 21.869 70.2052 22.0441C70.7161 22.2151 71.4124 22.4212 72.2982 22.6622C73.6662 23.0248 74.7148 23.4656 75.4461 23.9807C76.1754 24.4916 76.6781 25.0828 76.9541 25.7524C77.2343 26.4178 77.3744 27.1677 77.3744 28.002C77.3744 29.475 76.7996 30.6678 75.6521 31.5784C74.5087 32.491 72.7556 32.9463 70.3947 32.9463Z" fill="white"/>
<path d="M85.935 32.946C83.5556 32.946 81.8024 32.398 80.6776 31.2979C79.5507 30.1937 78.9883 28.6012 78.9883 26.5184C78.9883 24.4542 79.5569 22.8658 80.6941 21.7554C81.8312 20.6471 83.5782 20.0908 85.935 20.0908C88.3124 20.0908 90.0676 20.6471 91.2007 21.7554C92.3379 22.8658 92.9065 24.4542 92.9065 26.5184C92.9065 28.6012 92.342 30.1937 91.2172 31.2979C90.0903 32.398 88.3289 32.946 85.935 32.946ZM85.935 29.6663C86.9074 29.6663 87.6016 29.4252 88.0199 28.9411C88.436 28.4529 88.6461 27.6453 88.6461 26.5184C88.6461 25.3874 88.436 24.5798 88.0199 24.0957C87.6016 23.6074 86.9074 23.3623 85.935 23.3623C84.9791 23.3623 84.291 23.6074 83.8749 24.0957C83.4629 24.5798 83.2569 25.3874 83.2569 26.5184C83.2569 27.6453 83.4629 28.4529 83.8749 28.9411C84.291 29.4252 84.9791 29.6663 85.935 29.6663Z" fill="white"/>
<path d="M98.8438 32.9459C97.4923 32.9459 96.52 32.6534 95.9267 32.0642C95.3375 31.4709 95.0449 30.5232 95.0449 29.2212V15.1465H99.2311V28.801C99.2311 29.2027 99.3135 29.4767 99.4783 29.625C99.6431 29.7733 99.8924 29.8475 100.228 29.8475C100.694 29.8475 101.11 29.7878 101.472 29.6662V32.5009C101.071 32.6555 100.675 32.7667 100.286 32.8388C99.8944 32.9088 99.4144 32.9459 98.8438 32.9459Z" fill="white"/>
<path d="M62.8821 50.9228C61.2443 50.9228 59.8846 50.6138 58.8031 49.9917C57.7256 49.3654 56.9181 48.4919 56.3804 47.3712C55.8468 46.2464 55.5811 44.9279 55.5811 43.4158C55.5811 41.7636 55.8324 40.3235 56.3392 39.0978C56.8439 37.8679 57.6288 36.9181 58.696 36.2465C59.7672 35.577 61.1537 35.2412 62.8574 35.2412C63.735 35.2412 64.5323 35.3051 65.2471 35.4307C65.9661 35.5585 66.6398 35.7315 67.2661 35.9499V37.6557C66.6398 37.4208 65.9723 37.2354 65.2636 37.1036C64.5549 36.9676 63.8071 36.8975 63.0222 36.8975C61.6481 36.8975 60.5604 37.1592 59.759 37.6804C58.9555 38.1975 58.3828 38.9453 58.0367 39.9218C57.6906 40.8942 57.5176 42.0602 57.5176 43.4158C57.5176 45.2905 57.9626 46.7346 58.8525 47.7503C59.7425 48.7618 61.1454 49.2665 63.0634 49.2665C63.7721 49.2665 64.4911 49.2129 65.2224 49.1017C65.9579 48.9925 66.6398 48.8195 67.2661 48.5826V50.3048C66.6563 50.4985 65.9908 50.6489 65.2719 50.758C64.557 50.8672 63.7597 50.9228 62.8821 50.9228Z" fill="white"/>
<path d="M70.1045 50.6839V34.7715H72.0328V40.6964C72.554 40.2741 73.1638 39.928 73.8622 39.6581C74.5647 39.3903 75.3805 39.2543 76.3096 39.2543C77.661 39.2543 78.6746 39.588 79.3503 40.2514C80.0302 40.9106 80.3721 41.9489 80.3721 43.3663V50.6839H78.4356V43.4322C78.4356 42.4599 78.2172 41.7821 77.7846 41.3968C77.3499 41.0075 76.6392 40.8118 75.6503 40.8118C75.0179 40.8118 74.3669 40.9518 73.6973 41.232C73.0319 41.5081 72.4778 41.8645 72.0328 42.3033V50.6839H70.1045Z" fill="white"/>
<path d="M87.4991 50.9227C86.1579 50.9227 85.1444 50.5519 84.4583 49.8102C83.7764 49.0686 83.4365 47.9891 83.4365 46.5717V39.4932H85.373V46.6459C85.373 47.575 85.6038 48.261 86.0652 48.706C86.5308 49.1469 87.2539 49.3653 88.2325 49.3653C88.9247 49.3653 89.5757 49.2396 90.1855 48.9862C90.7994 48.7349 91.3309 48.3888 91.7759 47.9479V39.4932H93.7124V50.6837H91.9572L91.8418 49.4065C91.3082 49.8515 90.6717 50.2182 89.93 50.5024C89.1884 50.7826 88.3767 50.9227 87.4991 50.9227Z" fill="white"/>
<path d="M100.929 50.6837L96.5371 39.4932H98.5478L102.017 48.8873L105.486 39.4932H107.497L103.105 50.6837H100.929Z" fill="white"/>
<path d="M113.798 50.9229C113.089 50.9229 112.434 50.7952 111.837 50.5439C111.237 50.2925 110.757 49.9176 110.394 49.4231C110.032 48.9246 109.851 48.2983 109.851 47.5443C109.851 46.5225 110.188 45.6861 110.864 45.031C111.544 44.3779 112.648 44.0504 114.177 44.0504H118.066V43.3664C118.066 42.7525 117.984 42.2622 117.819 41.8996C117.654 41.537 117.343 41.2795 116.888 41.125C116.431 40.9664 115.761 40.886 114.877 40.886C114.202 40.886 113.546 40.9416 112.916 41.0508C112.29 41.1621 111.701 41.3125 111.153 41.504V39.8972C111.657 39.7056 112.251 39.5511 112.933 39.4357C113.619 39.3162 114.354 39.2544 115.141 39.2544C116.727 39.2544 117.92 39.5799 118.717 40.2268C119.513 40.8695 119.912 41.9161 119.912 43.3664V50.6839H118.281L118.141 49.4067C117.65 49.9135 117.061 50.2925 116.369 50.5439C115.677 50.7952 114.82 50.9229 113.798 50.9229ZM114.292 49.3407C115.11 49.3407 115.833 49.1965 116.459 48.904C117.09 48.6135 117.625 48.2159 118.066 47.7091V45.5336H114.218C113.338 45.5336 112.71 45.7026 112.331 46.0363C111.952 46.3659 111.762 46.8686 111.762 47.5443C111.762 48.22 111.989 48.6897 112.446 48.9534C112.902 49.213 113.518 49.3407 114.292 49.3407Z" fill="white"/>
</svg>
