<svg width="24" height="24" viewBox="0 0 24 24" fill="none" xmlns="http://www.w3.org/2000/svg">
<path d="M17.5766 19.0001L12.8096 14.2341C10.6534 15.6565 7.77057 15.2165 6.13689 13.2156C4.5032 11.2148 4.64865 8.3022 6.47356 6.47407C8.30137 4.64846 11.2143 4.50238 13.2156 6.13595C15.2168 7.76953 15.6571 10.6527 14.2346 12.8091L18.9996 17.5771L17.5766 19.0001ZM10.0336 7.01406C8.59281 7.01315 7.35204 8.03008 7.07004 9.44297C6.78805 10.8559 7.54337 12.2712 8.87408 12.8234C10.2048 13.3756 11.7403 12.911 12.5415 11.7136C13.3428 10.5162 13.1866 8.91953 12.1686 7.90007C11.6038 7.33141 10.835 7.01236 10.0336 7.01406Z" fill="black" fill-opacity="0.65"/>
</svg>
